HIERARCHY
ROOT mixamorig:Hips
{
	OFFSET 0.003794 2.116619 0.012124
	CHANNELS 6 Xposition Yposition Zposition Xrotation Yrotation Zrotation
	JOINT mixamorig:Spine
	{
		OFFSET 0.000000 0.185976 -0.012393
		CHANNELS 3 Xrotation Yrotation Zrotation
		JOINT mixamorig:Spine1
		{
			OFFSET 0.000000 0.216972 -0.014459
			CHANNELS 3 Xrotation Yrotation Zrotation
			JOINT mixamorig:Spine2
			{
				OFFSET -0.000000 0.247967 -0.016525
				CHANNELS 3 Xrotation Yrotation Zrotation
				JOINT mixamorig:Neck
				{
					OFFSET 0.000000 0.278964 -0.018590
					CHANNELS 3 Xrotation Yrotation Zrotation
					JOINT mixamorig:Head
					{
						OFFSET 0.000000 0.085875 0.019404
						CHANNELS 3 Xrotation Yrotation Zrotation
						JOINT mixamorig:HeadTop_End
						{
							OFFSET 0.000000 0.570341 0.128875
							CHANNELS 3 Xrotation Yrotation Zrotation
							End Site
							{
								OFFSET 0.000000 0.584720 0.000000
							}
						}
					}
				}
				JOINT mixamorig:LeftShoulder
				{
					OFFSET 0.122345 0.230572 -0.020212
					CHANNELS 3 Xrotation Yrotation Zrotation
					JOINT mixamorig:LeftArm
					{
						OFFSET 0.256200 -0.099962 -0.003243
						CHANNELS 3 Xrotation Yrotation Zrotation
						JOINT mixamorig:LeftForeArm
						{
							OFFSET 0.253946 -0.468758 -0.007560
							CHANNELS 3 Xrotation Yrotation Zrotation
							JOINT mixamorig:LeftHand
							{
								OFFSET 0.209013 -0.357533 0.112017
								CHANNELS 3 Xrotation Yrotation Zrotation
								JOINT mixamorig:LeftHandThumb1
								{
									OFFSET -0.010934 -0.053501 0.080750
									CHANNELS 3 Xrotation Yrotation Zrotation
									JOINT mixamorig:LeftHandThumb2
									{
										OFFSET -0.008747 -0.042801 0.064600
										CHANNELS 3 Xrotation Yrotation Zrotation
										JOINT mixamorig:LeftHandThumb3
										{
											OFFSET -0.015247 -0.032593 0.076310
											CHANNELS 3 Xrotation Yrotation Zrotation
											JOINT mixamorig:LeftHandThumb4
											{
												OFFSET -0.008204 -0.025256 0.065967
												CHANNELS 3 Xrotation Yrotation Zrotation
												End Site
												{
													OFFSET -0.006417 -0.029812 0.064241
												}
											}
										}
									}
								}
								JOINT mixamorig:LeftHandIndex1
								{
									OFFSET 0.085208 -0.190007 0.144884
									CHANNELS 3 Xrotation Yrotation Zrotation
									JOINT mixamorig:LeftHandIndex2
									{
										OFFSET 0.027378 -0.056781 0.031703
										CHANNELS 3 Xrotation Yrotation Zrotation
										JOINT mixamorig:LeftHandIndex3
										{
											OFFSET 0.023631 -0.052692 0.029116
											CHANNELS 3 Xrotation Yrotation Zrotation
											JOINT mixamorig:LeftHandIndex4
											{
												OFFSET 0.023859 -0.039011 0.022637
												CHANNELS 3 Xrotation Yrotation Zrotation
												End Site
												{
													OFFSET 0.023870 -0.039047 0.022565
												}
											}
										}
									}
								}
								JOINT mixamorig:LeftHandMiddle1
								{
									OFFSET 0.098136 -0.204336 0.091128
									CHANNELS 3 Xrotation Yrotation Zrotation
									JOINT mixamorig:LeftHandMiddle2
									{
										OFFSET 0.031736 -0.071332 0.027613
										CHANNELS 3 Xrotation Yrotation Zrotation
										JOINT mixamorig:LeftHandMiddle3
										{
											OFFSET 0.033515 -0.065019 0.025648
											CHANNELS 3 Xrotation Yrotation Zrotation
											JOINT mixamorig:LeftHandMiddle4
											{
												OFFSET 0.027390 -0.056766 0.022198
												CHANNELS 3 Xrotation Yrotation Zrotation
												End Site
												{
													OFFSET 0.027390 -0.056767 0.022195
												}
											}
										}
									}
								}
								JOINT mixamorig:LeftHandRing1
								{
									OFFSET 0.107803 -0.239950 0.032699
									CHANNELS 3 Xrotation Yrotation Zrotation
									JOINT mixamorig:LeftHandRing2
									{
										OFFSET 0.024616 -0.057105 0.018456
										CHANNELS 3 Xrotation Yrotation Zrotation
										JOINT mixamorig:LeftHandRing3
										{
											OFFSET 0.029462 -0.055857 0.018480
											CHANNELS 3 Xrotation Yrotation Zrotation
											JOINT mixamorig:LeftHandRing4
											{
												OFFSET 0.024118 -0.047601 0.015671
												CHANNELS 3 Xrotation Yrotation Zrotation
												End Site
												{
													OFFSET 0.024119 -0.047604 0.015659
												}
											}
										}
									}
								}
								JOINT mixamorig:LeftHandPinky1
								{
									OFFSET 0.097457 -0.241907 -0.015325
									CHANNELS 3 Xrotation Yrotation Zrotation
									JOINT mixamorig:LeftHandPinky2
									{
										OFFSET 0.027982 -0.057113 0.006070
										CHANNELS 3 Xrotation Yrotation Zrotation
										JOINT mixamorig:LeftHandPinky3
										{
											OFFSET 0.022260 -0.049326 0.005257
											CHANNELS 3 Xrotation Yrotation Zrotation
											JOINT mixamorig:LeftHandPinky4
											{
												OFFSET 0.023245 -0.039842 0.004208
												CHANNELS 3 Xrotation Yrotation Zrotation
												End Site
												{
													OFFSET 0.023245 -0.039844 0.004190
												}
											}
										}
									}
								}
							}
						}
					}
				}
				JOINT mixamorig:RightShoulder
				{
					OFFSET -0.122345 0.230572 -0.016969
					CHANNELS 3 Xrotation Yrotation Zrotation
					JOINT mixamorig:RightArm
					{
						OFFSET -0.256200 -0.099962 0.003243
						CHANNELS 3 Xrotation Yrotation Zrotation
						JOINT mixamorig:RightForeArm
						{
							OFFSET -0.253946 -0.468757 -0.015258
							CHANNELS 3 Xrotation Yrotation Zrotation
							JOINT mixamorig:RightHand
							{
								OFFSET -0.209013 -0.357533 0.106029
								CHANNELS 3 Xrotation Yrotation Zrotation
								JOINT mixamorig:RightHandThumb1
								{
									OFFSET 0.010294 -0.054427 0.087395
									CHANNELS 3 Xrotation Yrotation Zrotation
									JOINT mixamorig:RightHandThumb2
									{
										OFFSET 0.008235 -0.043541 0.069916
										CHANNELS 3 Xrotation Yrotation Zrotation
										JOINT mixamorig:RightHandThumb3
										{
											OFFSET 0.009631 -0.032153 0.074220
											CHANNELS 3 Xrotation Yrotation Zrotation
											JOINT mixamorig:RightHandThumb4
											{
												OFFSET 0.011544 -0.018907 0.061893
												CHANNELS 3 Xrotation Yrotation Zrotation
												End Site
												{
													OFFSET 0.008235 -0.027134 0.059308
												}
											}
										}
									}
								}
								JOINT mixamorig:RightHandIndex1
								{
									OFFSET -0.092504 -0.188556 0.148734
									CHANNELS 3 Xrotation Yrotation Zrotation
									JOINT mixamorig:RightHandIndex2
									{
										OFFSET -0.026038 -0.056928 0.033115
										CHANNELS 3 Xrotation Yrotation Zrotation
										JOINT mixamorig:RightHandIndex3
										{
											OFFSET -0.023616 -0.052662 0.030540
											CHANNELS 3 Xrotation Yrotation Zrotation
											JOINT mixamorig:RightHandIndex4
											{
												OFFSET -0.023966 -0.041577 0.025157
												CHANNELS 3 Xrotation Yrotation Zrotation
												End Site
												{
													OFFSET -0.023981 -0.041622 0.025069
												}
											}
										}
									}
								}
								JOINT mixamorig:RightHandMiddle1
								{
									OFFSET -0.096757 -0.203435 0.094901
									CHANNELS 3 Xrotation Yrotation Zrotation
									JOINT mixamorig:RightHandMiddle2
									{
										OFFSET -0.039977 -0.069384 0.026755
										CHANNELS 3 Xrotation Yrotation Zrotation
										JOINT mixamorig:RightHandMiddle3
										{
											OFFSET -0.033823 -0.066915 0.025280
											CHANNELS 3 Xrotation Yrotation Zrotation
											JOINT mixamorig:RightHandMiddle4
											{
												OFFSET -0.027617 -0.058308 0.021823
												CHANNELS 3 Xrotation Yrotation Zrotation
												End Site
												{
													OFFSET -0.027612 -0.058289 0.021878
												}
											}
										}
									}
								}
								JOINT mixamorig:RightHandRing1
								{
									OFFSET -0.117013 -0.247118 0.038708
									CHANNELS 3 Xrotation Yrotation Zrotation
									JOINT mixamorig:RightHandRing2
									{
										OFFSET -0.026450 -0.056799 0.015851
										CHANNELS 3 Xrotation Yrotation Zrotation
										JOINT mixamorig:RightHandRing3
										{
											OFFSET -0.028864 -0.054623 0.015491
											CHANNELS 3 Xrotation Yrotation Zrotation
											JOINT mixamorig:RightHandRing4
											{
												OFFSET -0.022477 -0.044591 0.012567
												CHANNELS 3 Xrotation Yrotation Zrotation
												End Site
												{
													OFFSET -0.022478 -0.044592 0.012563
												}
											}
										}
									}
								}
								JOINT mixamorig:RightHandPinky1
								{
									OFFSET -0.112569 -0.261282 -0.012761
									CHANNELS 3 Xrotation Yrotation Zrotation
									JOINT mixamorig:RightHandPinky2
									{
										OFFSET -0.024503 -0.046754 0.010721
										CHANNELS 3 Xrotation Yrotation Zrotation
										JOINT mixamorig:RightHandPinky3
										{
											OFFSET -0.019547 -0.043312 0.009774
											CHANNELS 3 Xrotation Yrotation Zrotation
											JOINT mixamorig:RightHandPinky4
											{
												OFFSET -0.020726 -0.029332 0.006999
												CHANNELS 3 Xrotation Yrotation Zrotation
												End Site
												{
													OFFSET -0.020728 -0.029349 0.006919
												}
											}
										}
									}
								}
							}
						}
					}
				}
			}
		}
	}
	JOINT mixamorig:LeftUpLeg
	{
		OFFSET 0.212778 -0.103318 0.007440
		CHANNELS 3 Xrotation Yrotation Zrotation
		JOINT mixamorig:LeftLeg
		{
			OFFSET 0.086721 -0.883755 0.028520
			CHANNELS 3 Xrotation Yrotation Zrotation
			JOINT mixamorig:LeftFoot
			{
				OFFSET 0.049862 -0.889022 -0.103409
				CHANNELS 3 Xrotation Yrotation Zrotation
				JOINT mixamorig:LeftToeBase
				{
					OFFSET -0.003295 -0.202434 0.276966
					CHANNELS 3 Xrotation Yrotation Zrotation
					JOINT mixamorig:LeftToe_End
					{
						OFFSET -0.002113 0.008674 0.136138
						CHANNELS 3 Xrotation Yrotation Zrotation
						End Site
						{
							OFFSET -0.002113 0.008673 0.136138
						}
					}
				}
			}
		}
	}
	JOINT mixamorig:RightUpLeg
	{
		OFFSET -0.212778 -0.103318 0.002375
		CHANNELS 3 Xrotation Yrotation Zrotation
		JOINT mixamorig:RightLeg
		{
			OFFSET -0.086721 -0.883755 0.083570
			CHANNELS 3 Xrotation Yrotation Zrotation
			JOINT mixamorig:RightFoot
			{
				OFFSET -0.049844 -0.888938 -0.150140
				CHANNELS 3 Xrotation Yrotation Zrotation
				JOINT mixamorig:RightToeBase
				{
					OFFSET 0.003288 -0.202543 0.285578
					CHANNELS 3 Xrotation Yrotation Zrotation
					JOINT mixamorig:RightToe_End
					{
						OFFSET 0.002108 0.008620 0.140478
						CHANNELS 3 Xrotation Yrotation Zrotation
						End Site
						{
							OFFSET 0.002108 0.008620 0.140478
						}
					}
				}
			}
		}
	}
}
MOTION
Frames: 6
Frame Time: 0.033333
-1.033259 0.781970 4.158734 -77.656819 45.819214 -9.358618 0.075441 8.459071 2.060502 0.586969 9.013971 5.908569 0.707262 9.060044 5.818074 14.148682 6.890670 13.365350 -15.962915 16.396619 -11.533122 -0.000000 -0.000000 0.000000 5.089937 -6.510720 9.740546 -27.743349 30.942622 -5.392890 -82.970809 -28.497641 -26.900195 5.224786 -17.944483 41.437955 -11.210149 23.306421 20.028963 21.524414 -11.824573 1.938184 -4.243039 8.959876 4.981862 -0.000003 -0.000003 0.000003 -1.293109 1.896743 13.996255 3.711767 -10.791596 -22.436451 3.428343 -14.691532 -30.225974 -0.000002 -0.000002 0.000003 -4.076828 4.808508 18.021898 2.522719 -7.998760 -23.789161 1.815271 -3.386571 -10.823647 -0.000001 0.000003 0.000002 4.784734 4.410390 4.665360 1.309461 -3.637438 -13.092564 2.342930 -5.310001 -19.704095 -0.000004 0.000003 0.000001 -1.858139 -4.102386 -9.727823 0.358103 -0.158188 -2.993818 0.299229 -1.227001 -13.331683 -0.000003 0.000001 -0.000005 -1.501425 36.358753 -33.599367 -68.555654 28.520486 34.959975 -55.074230 24.165269 14.420030 24.350155 38.257283 -34.863229 -11.912777 -22.055226 -18.561830 21.527762 13.211659 -0.630382 5.199132 -17.101448 -8.128799 0.000002 -0.000003 0.000000 -5.318967 -6.515123 -25.926935 2.278265 5.957897 11.959025 2.547865 7.620252 15.142751 0.000009 0.000000 -0.000006 -4.256807 -2.505833 -13.116038 1.449594 3.028174 9.959657 -0.290147 -0.565994 -1.885788 -0.000004 0.000003 -0.000001 3.600238 0.136679 3.574442 0.616903 1.771311 7.426106 0.600386 0.986641 4.571169 0.000002 0.000001 0.000001 3.130701 4.410854 13.578301 0.443281 0.591213 3.527864 0.308865 1.889377 9.161396 0.000000 -0.000000 0.000007 -129.163071 32.786189 -9.479169 73.602426 3.221161 -12.201138 -9.553910 8.615153 -18.559647 11.903897 0.000005 -0.000006 -0.000003 0.000002 -0.000000 -108.055300 39.910271 -21.007459 25.210105 -8.544848 -3.690130 30.690335 -13.108744 16.846423 -2.804065 0.000002 -0.000002 0.000002 0.000001 0.000001 
-1.075546 0.586706 4.012614 -89.708770 52.625894 2.065711 0.925632 7.739577 2.946679 2.277373 8.385267 6.173974 2.335867 8.416530 6.106055 12.020022 6.532759 20.872701 -9.222049 17.765986 -6.774317 0.000000 0.000001 0.000001 4.008167 -12.709200 0.486757 -39.732638 20.291719 -16.877882 -54.884818 -24.138580 -14.340257 2.175880 -19.464741 48.738410 -11.210150 23.306433 20.028959 21.524194 -11.823422 1.938655 -4.204436 8.842787 5.022861 -0.000002 -0.000001 -0.000006 -1.128025 2.044566 14.080890 3.744186 -11.044150 -22.933506 3.425969 -14.927457 -30.702609 -0.000002 -0.000003 0.000000 -4.066697 4.799842 17.983844 2.542951 -8.151070 -24.223944 1.854018 -3.490127 -11.133660 0.000000 0.000000 0.000002 4.815052 4.234464 4.312026 1.336846 -3.714361 -13.369156 2.372168 -5.437828 -20.145800 0.000000 0.000003 0.000001 -2.035562 -4.341309 -10.381463 0.372568 -0.175013 -3.208588 0.311082 -1.245993 -13.569386 -0.000001 -0.000001 -0.000005 -4.616557 35.875692 -23.141250 -55.219696 25.351045 25.929731 -55.726209 24.332402 14.685498 36.974092 54.057962 -46.163244 -11.912781 -22.055219 -18.561847 21.527788 13.212134 -0.629749 5.199442 -17.100579 -8.128641 0.000007 0.000000 -0.000001 -4.195406 -5.675765 -23.156962 2.749943 7.892167 15.664392 2.964398 9.939130 19.569108 0.000003 -0.000003 0.000001 -4.256797 -2.505836 -13.116051 1.700067 3.860735 12.520256 0.301043 0.547082 1.844810 -0.000005 0.000007 0.000006 3.075281 -0.831597 1.075786 0.694560 1.966580 8.262956 1.042944 2.046038 9.118892 -0.000001 -0.000005 0.000003 2.997811 3.936257 12.361099 0.318414 0.338514 2.158584 0.449335 2.300598 11.367543 -0.000000 0.000003 0.000008 -121.303791 27.026584 -5.878024 79.340160 2.895310 -12.699804 -13.240001 -7.383260 -15.856687 12.459479 0.000004 0.000000 -0.000002 -0.000001 0.000001 -104.758723 34.790900 -18.687633 25.665317 -9.352599 -5.469772 27.341951 -18.282432 18.679106 -7.843846 0.000007 -0.000005 -0.000002 0.000000 0.000001 
-1.104085 0.452318 3.931102 -97.742384 45.013730 9.811442 1.735092 8.334173 3.666838 4.040584 6.414208 5.407636 4.322771 6.460628 5.335895 10.925939 6.612823 19.824238 -2.479529 18.932328 -3.130430 0.000000 -0.000000 0.000001 4.880480 -14.514847 7.140006 -44.804658 33.323106 -22.508993 -29.575419 -15.219762 -5.770759 11.019427 -25.606982 64.070945 -11.210157 23.306424 20.028987 21.524008 -11.822244 1.939169 -4.204445 8.842771 5.022872 -0.000003 0.000001 -0.000003 -1.128903 2.044732 14.080584 3.744191 -11.044139 -22.933497 3.425948 -14.927223 -30.702110 -0.000007 0.000002 0.000004 -4.066692 4.799846 17.983852 2.542945 -8.151087 -24.223945 1.854004 -3.490143 -11.133665 0.000000 0.000004 0.000001 4.815389 4.234624 4.312027 1.336840 -3.714360 -13.369151 2.372150 -5.437834 -20.145805 0.000003 -0.000001 0.000006 -2.035556 -4.341307 -10.381455 0.372567 -0.175023 -3.208600 0.311084 -1.245981 -13.569379 0.000001 -0.000006 -0.000004 -6.532643 35.896428 -14.215769 -50.455806 22.603879 16.936045 -52.993652 23.610589 13.584780 37.098350 45.559722 -34.386003 -11.912781 -22.055237 -18.561828 21.527470 13.211329 -0.629127 5.199872 -17.099693 -8.128047 0.000000 0.000001 0.000001 -3.001100 -4.667471 -20.093122 3.089653 9.806642 19.286528 3.196486 12.228033 23.909613 0.000001 -0.000001 -0.000000 -4.256810 -2.505838 -13.116046 1.919251 4.729763 15.158816 0.847060 1.765260 5.785063 -0.000004 0.000001 0.000002 2.572028 -1.641773 -1.097796 0.803398 2.255230 9.491120 1.412388 3.179804 13.837414 -0.000005 0.000001 0.000003 2.879551 3.611427 11.510264 0.239542 0.186319 1.325493 0.591875 2.782335 13.917800 -0.000000 0.000001 0.000006 -119.833442 12.152530 7.407058 81.339316 -2.864695 -13.098465 -12.685196 -8.070539 3.533450 9.164752 -0.000007 -0.000002 -0.000002 -0.000001 0.000003 -106.277757 20.443057 -5.599693 20.920596 -7.700529 -3.744731 27.277132 -12.301003 12.569729 -5.932812 0.000006 0.000020 -0.000001 0.000001 0.000001 
-1.113404 0.373616 3.885786 -91.665442 40.144041 12.000425 1.557745 8.194617 3.620027 5.114382 3.056486 3.249910 4.262975 3.132489 3.199292 5.708886 8.005897 13.384215 0.752204 25.677403 -11.693835 0.000000 0.000000 0.000000 5.436786 -13.368479 12.196279 -46.506314 34.308436 -21.195219 -30.944633 -15.815397 -6.131240 7.546163 -24.766852 62.045432 -11.210166 23.306427 20.028963 21.523804 -11.821090 1.939767 -4.204432 8.842774 5.022846 -0.000003 0.000003 -0.000005 -1.130882 2.045135 14.079876 3.744187 -11.044160 -22.933504 3.425970 -14.926641 -30.700966 -0.000004 -0.000000 0.000003 -4.066710 4.799857 17.983854 2.542943 -8.151069 -24.223949 1.854022 -3.490113 -11.133662 -0.000002 -0.000001 -0.000001 4.816102 4.235047 4.312005 1.336829 -3.714365 -13.369149 2.372169 -5.437835 -20.145795 -0.000002 -0.000003 0.000001 -2.035577 -4.341303 -10.381458 0.372566 -0.175022 -3.208603 0.311091 -1.245983 -13.569371 -0.000003 0.000001 -0.000003 0.732796 33.651987 -25.620332 -53.672644 25.455451 12.762601 -54.665019 24.058740 14.254289 28.102491 14.228216 -9.412191 -11.912787 -22.055220 -18.561826 21.526904 13.209191 -0.628695 5.200518 -17.098619 -8.126761 0.000002 0.000001 0.000001 -1.859190 -3.571751 -17.019537 3.284171 11.465581 22.407293 3.254456 14.203508 27.663576 0.000007 -0.000006 0.000001 -4.256818 -2.505831 -13.116040 2.086012 5.540495 17.595901 1.289443 2.960641 9.539209 -0.000005 0.000001 0.000004 2.162000 -2.217384 -2.712621 0.937593 2.639771 11.112163 1.673811 4.270148 18.272711 0.000001 -0.000000 -0.000000 2.795336 3.480515 11.143065 0.237777 0.183000 1.307373 0.721235 3.307172 16.661603 0.000005 -0.000001 0.000005 -121.241144 -3.378696 19.643069 82.448019 -1.982333 -13.249031 -14.690176 -8.062903 11.443881 4.857958 0.000009 0.000012 0.000001 0.000001 -0.000001 -120.137413 9.828367 5.458454 32.403787 -6.642639 1.017087 29.931371 -3.831754 8.992075 -5.410314 0.000008 0.000003 0.000000 -0.000002 -0.000002 
-1.130420 0.362879 3.808033 -90.797584 36.050715 16.655423 2.251288 5.032236 2.929022 5.418639 2.811459 1.072865 5.378642 2.904714 1.024228 -0.761618 10.245133 3.868427 -11.098298 30.200300 -22.364746 -0.000001 -0.000000 -0.000000 5.584189 -15.413234 12.875754 -54.196376 27.018010 -8.227907 -42.821728 -20.458995 -9.793952 -4.709106 -14.634276 52.055382 -11.210168 23.306441 20.028976 21.523615 -11.820017 1.940310 -4.204425 8.842768 5.022857 -0.000001 0.000001 -0.000001 -1.133007 2.045567 14.079108 3.744195 -11.044154 -22.933502 3.425983 -14.926033 -30.699709 -0.000006 0.000004 0.000006 -4.066699 4.799860 17.983851 2.542949 -8.151077 -24.223939 1.854000 -3.490133 -11.133685 0.000000 -0.000001 0.000001 4.816926 4.235479 4.311983 1.336825 -3.714372 -13.369154 2.372183 -5.437834 -20.145786 -0.000002 0.000002 0.000003 -2.035561 -4.341303 -10.381453 0.372561 -0.175021 -3.208593 0.311077 -1.245994 -13.569378 0.000000 0.000004 0.000004 4.858211 37.218678 -30.434319 -56.219810 21.228069 -0.678399 -63.020632 25.984608 17.764911 20.003607 -4.019931 9.462238 -11.912792 -22.055212 -18.561835 21.526079 13.205618 -0.628642 5.201283 -17.097592 -8.124894 -0.000002 0.000000 0.000004 -0.867614 -2.500300 -14.209485 3.365794 12.631643 24.599370 3.215402 15.586230 30.309992 0.000005 -0.000002 0.000001 -4.256810 -2.505825 -13.116050 2.194792 6.195468 19.551623 1.602397 3.993545 12.714115 -0.000006 -0.000000 0.000002 1.920089 -2.487801 -3.532451 1.089264 3.123053 13.127740 1.826743 5.191948 21.970267 -0.000000 0.000000 0.000002 2.761267 3.587142 11.377248 0.339266 0.379629 2.382523 0.826698 3.845908 19.448684 0.000001 -0.000004 0.000000 -104.310014 -17.169994 37.072392 73.764499 -2.487800 -12.598946 -19.060879 -5.580498 3.631370 3.671032 -0.000006 -0.000010 -0.000002 -0.000002 -0.000000 -128.131193 -4.062109 20.605405 49.605936 -2.690146 1.617976 24.264660 -5.242814 3.640493 -5.807674 0.000004 0.000012 0.000002 -0.000002 -0.000001 
-1.176831 0.377235 3.751771 -93.820114 31.448783 22.642670 2.845919 3.791156 2.216496 5.779425 4.104975 -0.598795 6.095204 4.218049 -0.647756 -10.749627 11.031061 -0.575999 -14.068194 28.474043 -24.000112 -0.000001 0.000000 -0.000000 5.588451 -13.564161 14.980613 -58.423915 27.042848 -5.222509 -42.418589 -20.317542 -9.655130 -12.224609 -6.080688 34.301521 -11.210161 23.306439 20.028980 21.523482 -11.819052 1.940812 -4.204422 8.842790 5.022863 -0.000003 0.000000 0.000000 -1.134344 2.045840 14.078634 3.744186 -11.044160 -22.933494 3.425974 -14.925640 -30.698941 -0.000004 -0.000001 0.000008 -4.066708 4.799853 17.983852 2.542949 -8.151073 -24.223951 1.854007 -3.490128 -11.133673 0.000000 0.000001 -0.000002 4.817447 4.235760 4.311982 1.336829 -3.714382 -13.369164 2.372182 -5.437812 -20.145790 -0.000001 0.000004 0.000005 -2.035553 -4.341302 -10.381441 0.372544 -0.175039 -3.208613 0.311085 -1.245980 -13.569372 -0.000001 0.000000 0.000001 5.032815 37.321745 -28.500962 -55.922058 13.649712 -13.331300 -72.709269 27.563625 22.105311 21.013174 -11.119383 8.697496 -11.912772 -22.055248 -18.561826 21.525041 13.200654 -0.629177 5.202096 -17.096758 -8.122486 -0.000001 -0.000002 0.000004 -0.098571 -1.588528 -11.927048 3.384761 13.071396 25.427030 3.183402 16.106235 31.311469 0.000003 -0.000001 -0.000002 -4.256814 -2.505845 -13.116041 2.250166 6.596558 20.744919 1.785808 4.719572 14.915967 -0.000004 0.000002 -0.000001 1.914583 -2.381063 -3.321602 1.248360 3.708018 15.539690 1.896277 5.820069 24.472703 0.000002 0.000002 0.000001 2.785810 3.975354 12.330839 0.556299 0.833946 4.828182 0.903287 4.368029 22.128653 0.000000 -0.000000 0.000007 -81.425035 -18.236501 41.993034 59.138223 -6.184544 0.764049 -19.958422 1.517422 16.731923 4.858972 0.000004 0.000022 -0.000003 0.000004 -0.000000 -119.934925 -16.584005 40.031821 44.183073 0.043807 1.405055 16.990992 -9.427509 -5.620481 -4.718007 0.000004 -0.000007 -0.000001 -0.000001 -0.000000 
